<?xml version="1.0" encoding="UTF-8" standalone="no"?>
<svg
   xmlns:dc="http://purl.org/dc/elements/1.1/"
   xmlns:cc="http://creativecommons.org/ns#"
   xmlns:rdf="http://www.w3.org/1999/02/22-rdf-syntax-ns#"
   xmlns:svg="http://www.w3.org/2000/svg"
   xmlns="http://www.w3.org/2000/svg"
   xmlns:sodipodi="http://sodipodi.sourceforge.net/DTD/sodipodi-0.dtd"
   xmlns:inkscape="http://www.inkscape.org/namespaces/inkscape"
   id="colony_logomark"
   viewBox="0 0 112 112"
   version="1.1"
   title="Colony"
   sodipodi:docname="logo.svg"
   inkscape:version="0.92.3 (2405546, 2018-03-11)">
  <metadata
     id="metadata64">
    <rdf:RDF>
      <cc:Work
         rdf:about="">
        <dc:format>image/svg+xml</dc:format>
        <dc:type
           rdf:resource="http://purl.org/dc/dcmitype/StillImage" />
      </cc:Work>
    </rdf:RDF>
  </metadata>
  <defs
     id="defs62" />
  <sodipodi:namedview
     pagecolor="#ffffff"
     bordercolor="#666666"
     borderopacity="1"
     objecttolerance="10"
     gridtolerance="10"
     guidetolerance="10"
     inkscape:pageopacity="0"
     inkscape:pageshadow="2"
     inkscape:window-width="1920"
     inkscape:window-height="1029"
     id="namedview60"
     showgrid="false"
     inkscape:zoom="7.5892857"
     inkscape:cx="36.564706"
     inkscape:cy="56"
     inkscape:window-x="0"
     inkscape:window-y="0"
     inkscape:window-maximized="1"
     inkscape:current-layer="colony_logomark" />
  <path
     d="M 78.627197,78.627197 H 102.00555 L 78.627197,102.00555 Z m -49.354302,0 V 102.00555 L 5.8945421,78.627197 Z m 0,-49.354302 H 5.8945421 L 29.272895,5.8945421 Z m 49.354302,0 V 5.7946346 L 102.00555,29.272895 Z M 32.047548,53.950046 53.947581,32.050014 75.847614,53.950046 53.947581,75.850078 Z m -4.672895,0 A 13.687327,13.687327 0 0 1 13.687327,67.637373 13.687327,13.687327 0 0 1 0,53.950046 13.687327,13.687327 0 0 1 13.687327,40.26272 13.687327,13.687327 0 0 1 27.374653,53.950046 Z m 80.625347,0 A 13.687327,13.687327 0 0 1 94.312675,67.637373 13.687327,13.687327 0 0 1 80.625349,53.950046 13.687327,13.687327 0 0 1 94.312675,40.26272 13.687327,13.687327 0 0 1 108,53.950046 Z M 67.637373,94.312675 A 13.687327,13.687327 0 0 1 53.950046,108 13.687327,13.687327 0 0 1 40.26272,94.312675 13.687327,13.687327 0 0 1 53.950046,80.625349 13.687327,13.687327 0 0 1 67.637373,94.312675 Z m 0,-80.625348 A 13.687327,13.687327 0 0 1 53.950046,27.374653 13.687327,13.687327 0 0 1 40.26272,13.687327 13.687327,13.687327 0 0 1 53.950046,0 13.687327,13.687327 0 0 1 67.637373,13.687327 Z"
     id="path57" />
  <path
     style="fill:#00284b;stroke-width:0.13176471;fill-opacity:1"
     d="M 11.614018,67.413514 C 5.834597,66.464711 1.3837853,62.120563 0.29146245,56.362306 -0.09581943,54.320721 0.09981361,51.609652 0.7786388,49.611048 1.1697205,48.459622 2.1012021,46.70908 2.855981,45.707081 c 3.3866239,-4.49588 9.460933,-6.447629 14.826843,-4.764044 6.189919,1.942123 10.195341,7.944792 9.543018,14.301512 -0.701667,6.837569 -6.194237,12.016003 -13.028847,12.28369 -0.930649,0.03645 -1.933428,-0.0081 -2.582977,-0.114725 z"
     id="path5204"
     inkscape:connector-curvature="0" />
  <path
     style="fill:#00284b;fill-opacity:1;stroke-width:0.13176471"
     d="M 17.616941,90.192941 6.0880941,78.663529 h 11.5620709 11.56207 v 11.529412 c 0,6.341177 -0.01495,11.529409 -0.03322,11.529409 -0.01827,0 -5.221205,-5.188232 -11.562071,-11.529409 z"
     id="path5206"
     inkscape:connector-curvature="0" />
  <path
     style="fill:#00284b;fill-opacity:1;stroke-width:0.13176471"
     d="M 43.014291,64.86088 32.111057,53.957054 43.014884,43.05382 53.918711,32.150586 64.821945,43.054414 75.725178,53.95824 64.821351,64.861474 53.917525,75.764707 Z"
     id="path5208"
     inkscape:connector-curvature="0" />
  <path
     style="fill:#00284b;fill-opacity:1;stroke-width:0.13176471"
     d="M 51.546353,107.72205 C 44.144838,106.36216 39.205656,99.222232 40.559641,91.84 c 0.950407,-5.181834 4.898932,-9.382673 10.097582,-10.742826 6.170835,-1.614512 12.943428,1.636354 15.660492,7.517084 1.376413,2.979065 1.606659,6.609913 0.617964,9.744977 -1.536958,4.873555 -5.649508,8.483445 -10.660185,9.357235 -1.360803,0.23731 -3.454462,0.23977 -4.729141,0.006 z"
     id="path5210"
     inkscape:connector-curvature="0" />
  <path
     style="fill:#00284b;fill-opacity:1;stroke-width:0.13176471"
     d="M 51.43112,27.078996 C 43.861402,25.504318 39.092111,18.379359 40.61746,10.924206 41.804663,5.1217445 46.832195,0.63558835 52.691857,0.15000692 56.909095,-0.19946921 60.725304,1.2135067 63.712312,4.2304004 67.688652,8.246524 68.694578,14.61576 66.15344,19.68692 c -1.76494,3.52216 -4.87717,6.096442 -8.627793,7.136483 -1.555593,0.431363 -4.629803,0.56029 -6.094527,0.255593 z"
     id="path5212"
     inkscape:connector-curvature="0" />
  <path
     style="fill:#00284b;fill-opacity:1;stroke-width:0.13176471"
     d="M 17.551059,17.656471 C 23.928162,11.279059 29.160742,6.0611765 29.179013,6.0611765 c 0.01827,0 0.03322,5.2178825 0.03322,11.5952945 V 29.251765 H 17.584281 5.9563262 Z"
     id="path5214"
     inkscape:connector-curvature="0" />
  <path
     style="fill:#00284b;fill-opacity:1;stroke-width:0.13176471"
     d="M 78.676706,17.62381 V 5.9958556 L 90.272,17.590588 c 6.377412,6.377104 11.59529,11.609683 11.59529,11.627955 0,0.01827 -5.217878,0.03322 -11.59529,0.03322 H 78.676706 Z"
     id="path5216"
     inkscape:connector-curvature="0" />
  <path
     style="fill:#00284b;fill-opacity:1;stroke-width:0.13176471"
     d="m 92.446118,67.449233 c -2.129496,-0.306867 -4.601185,-1.334023 -6.28538,-2.612005 -1.041625,-0.790396 -2.518727,-2.343223 -3.180897,-3.343969 -0.766014,-1.157688 -1.515765,-2.855178 -1.890513,-4.280258 -0.288776,-1.098146 -0.336304,-1.558207 -0.336304,-3.255354 0,-1.708373 0.04678,-2.155202 0.344861,-3.294118 1.304878,-4.985678 4.930063,-8.570975 10.09241,-9.981362 0.808335,-0.220842 1.383133,-0.271192 3.100529,-0.271594 1.847537,-4.33e-4 2.264961,0.04134 3.375664,0.337788 4.861612,1.297585 8.532402,4.956711 9.824042,9.792809 0.30417,1.138869 0.35039,1.572658 0.35697,3.350595 0.006,1.689323 -0.0429,2.242941 -0.28446,3.202802 -1.18227,4.698225 -4.5458,8.318934 -9.141497,9.840469 -1.72075,0.569703 -4.14349,0.778184 -5.975425,0.514197 z"
     id="path5218"
     inkscape:connector-curvature="0" />
  <path
     style="fill:#00284b;fill-opacity:1;stroke-width:0.13176471"
     d="M 78.676706,90.258824 V 78.663529 H 90.30466 101.93262 L 90.337882,90.258824 C 83.960779,96.636235 78.7282,101.85412 78.709928,101.85412 c -0.01827,0 -0.03322,-5.217885 -0.03322,-11.595296 z"
     id="path5220"
     inkscape:connector-curvature="0" />
</svg>
